# xmcd CD database file
#
# Track frame offsets:
#	150
#	15421
#	50552
#	75825
#	112098
#	142476
#	164480
#	189978
#	216371
#	236926
#
# Disc length: 3608 seconds
#
# Revision: 0
# Processed by: cddbd v1.5.2PL0 Copyright (c) Steve Scherf et al.
# Submitted via: CDex 1.70beta2
#
DISCID=8e0e160a
DTITLE=Ben Kraef - Berlin-New York
DYEAR=2010
DGENRE=Jazz
TTITLE0=Dayfly
TTITLE1=Willie B
TTITLE2=Ben Kraef - Mind at Peace
TTITLE3=Skystepper
TTITLE4=For Spring to Come
TTITLE5=Mama'n'em
TTITLE6=Another Day's Song
TTITLE7=Flutterbyes
TTITLE8=Joe Blow
TTITLE9=You Only Live Twice 
EXTD=YEAR: 2010
EXTT0=
EXTT1=
EXTT2=
EXTT3=
EXTT4=
EXTT5=
EXTT6=
EXTT7=
EXTT8=
EXTT9=
PLAYORDER=
